<svg width="800" height="400" xmlns="http://www.w3.org/2000/svg">
<title>Perfil de Altimetria del Circuito</title>
<polyline points="20,400.0 345.0,400.0 395.0,400.0 455.0,400.0 755.0,400.0 880.0,400.0 930.0,400.0 980.0,400.0 1105.0,400.0 1280.0,400.0 1330.0,400.0 1680.0,400.0 1710.0,400.0 1755.0,400.0 1855.0,400.0 1955.0,400.0 2330.0,400.0 2380.0,400.0" style="fill:none;stroke:black;stroke-width:2" />
<polygon points="20,400 20,400.0 345.0,400.0 395.0,400.0 455.0,400.0 755.0,400.0 880.0,400.0 930.0,400.0 980.0,400.0 1105.0,400.0 1280.0,400.0 1330.0,400.0 1680.0,400.0 1710.0,400.0 1755.0,400.0 1855.0,400.0 1955.0,400.0 2330.0,400.0 2380.0,400.0 2380.0,400" style="fill:lightgray;stroke:black;stroke-width:1" />
</svg>
